<svg xmlns="http://www.w3.org/2000/svg" x="0px" y="0px" width="100" height="100" viewBox="0,0,256,256">
<g fill="#D3D3D3" fill-rule="nonzero" stroke="none" stroke-width="1" stroke-linecap="butt" stroke-linejoin="miter" stroke-miterlimit="10" stroke-dasharray="" stroke-dashoffset="0" font-family="none" font-weight="none" font-size="none" text-anchor="none" style="mix-blend-mode: normal"><g transform="scale(10.66667,10.66667)"><path d="M12,1c-2.87222,0 -5.28109,2.04615 -5.87695,4.78711l1.95508,0.42578c0.40414,-1.85904 1.9941,-3.21289 3.92188,-3.21289c2.27619,0 4,1.72381 4,4v1h-10c-1.09306,0 -2,0.90694 -2,2v10c0,1.09306 0.90694,2 2,2h12c1.09306,0 2,-0.90694 2,-2v-10c0,-1.09306 -0.90694,-2 -2,-2v-1c0,-3.32381 -2.67619,-6 -6,-6zM6,10h12v10h-12zM12,13c-1.1,0 -2,0.9 -2,2c0,1.1 0.9,2 2,2c1.1,0 2,-0.9 2,-2c0,-1.1 -0.9,-2 -2,-2z"></path></g></g>
</svg>